<mxfile host="app.diagrams.net" modified="2020-10-13T07:36:38.488Z" agent="5.0 (Windows NT 10.0; Win64; x64) AppleWebKit/537.36 (KHTML, like Gecko) Chrome/85.0.4183.121 Safari/537.36" etag="XGBltADujDByPDwkg2Nq" version="13.7.6" type="github">
  <diagram id="C5RBs43oDa-KdzZeNtuy" name="Page-1">
    <mxGraphModel dx="2062" dy="1081" grid="1" gridSize="10" guides="1" tooltips="1" connect="1" arrows="1" fold="1" page="1" pageScale="1" pageWidth="827" pageHeight="1169" math="0" shadow="0">
      <root>
        <mxCell id="WIyWlLk6GJQsqaUBKTNV-0" />
        <mxCell id="WIyWlLk6GJQsqaUBKTNV-1" parent="WIyWlLk6GJQsqaUBKTNV-0" />
        <mxCell id="oInfv-fMDn0yhap7R1GD-4" style="edgeStyle=orthogonalEdgeStyle;rounded=0;orthogonalLoop=1;jettySize=auto;html=1;entryX=0.001;entryY=0.582;entryDx=0;entryDy=0;entryPerimeter=0;fillColor=#d5e8d4;strokeColor=#82b366;" edge="1" parent="WIyWlLk6GJQsqaUBKTNV-1" source="oInfv-fMDn0yhap7R1GD-0" target="oInfv-fMDn0yhap7R1GD-1">
          <mxGeometry relative="1" as="geometry" />
        </mxCell>
        <mxCell id="oInfv-fMDn0yhap7R1GD-15" style="edgeStyle=orthogonalEdgeStyle;rounded=0;orthogonalLoop=1;jettySize=auto;html=1;fillColor=#d5e8d4;strokeColor=#82b366;" edge="1" parent="WIyWlLk6GJQsqaUBKTNV-1" source="oInfv-fMDn0yhap7R1GD-0" target="oInfv-fMDn0yhap7R1GD-23">
          <mxGeometry relative="1" as="geometry">
            <mxPoint x="370" y="560" as="targetPoint" />
            <Array as="points">
              <mxPoint x="260" y="380" />
              <mxPoint x="260" y="560" />
            </Array>
          </mxGeometry>
        </mxCell>
        <mxCell id="oInfv-fMDn0yhap7R1GD-25" style="edgeStyle=orthogonalEdgeStyle;rounded=0;orthogonalLoop=1;jettySize=auto;html=1;dashed=1;" edge="1" parent="WIyWlLk6GJQsqaUBKTNV-1" source="oInfv-fMDn0yhap7R1GD-0" target="oInfv-fMDn0yhap7R1GD-21">
          <mxGeometry relative="1" as="geometry">
            <Array as="points">
              <mxPoint x="220" y="400" />
            </Array>
          </mxGeometry>
        </mxCell>
        <mxCell id="oInfv-fMDn0yhap7R1GD-0" value="Core Share&lt;br&gt;API" style="rounded=1;whiteSpace=wrap;html=1;" vertex="1" parent="WIyWlLk6GJQsqaUBKTNV-1">
          <mxGeometry x="80" y="360" width="120" height="60" as="geometry" />
        </mxCell>
        <mxCell id="oInfv-fMDn0yhap7R1GD-27" style="edgeStyle=orthogonalEdgeStyle;rounded=0;orthogonalLoop=1;jettySize=auto;html=1;exitX=0;exitY=0.25;exitDx=0;exitDy=0;entryX=1;entryY=0;entryDx=0;entryDy=0;dashed=1;" edge="1" parent="WIyWlLk6GJQsqaUBKTNV-1" source="oInfv-fMDn0yhap7R1GD-1" target="oInfv-fMDn0yhap7R1GD-0">
          <mxGeometry relative="1" as="geometry">
            <Array as="points">
              <mxPoint x="400" y="340" />
              <mxPoint x="200" y="340" />
            </Array>
          </mxGeometry>
        </mxCell>
        <mxCell id="oInfv-fMDn0yhap7R1GD-1" value="Kafka" style="shape=process;whiteSpace=wrap;html=1;backgroundOutline=1;" vertex="1" parent="WIyWlLk6GJQsqaUBKTNV-1">
          <mxGeometry x="400" y="320" width="120" height="120" as="geometry" />
        </mxCell>
        <mxCell id="oInfv-fMDn0yhap7R1GD-5" style="edgeStyle=orthogonalEdgeStyle;rounded=0;orthogonalLoop=1;jettySize=auto;html=1;entryX=0;entryY=0.5;entryDx=0;entryDy=0;entryPerimeter=0;exitX=1;exitY=0.5;exitDx=0;exitDy=0;fillColor=#d5e8d4;strokeColor=#82b366;" edge="1" parent="WIyWlLk6GJQsqaUBKTNV-1" source="oInfv-fMDn0yhap7R1GD-23" target="oInfv-fMDn0yhap7R1GD-3">
          <mxGeometry relative="1" as="geometry">
            <Array as="points">
              <mxPoint x="620" y="570" />
            </Array>
          </mxGeometry>
        </mxCell>
        <mxCell id="oInfv-fMDn0yhap7R1GD-6" style="edgeStyle=orthogonalEdgeStyle;rounded=0;orthogonalLoop=1;jettySize=auto;html=1;entryX=0.5;entryY=1;entryDx=0;entryDy=0;dashed=1;exitX=0;exitY=0.5;exitDx=0;exitDy=0;" edge="1" parent="WIyWlLk6GJQsqaUBKTNV-1" source="oInfv-fMDn0yhap7R1GD-21" target="oInfv-fMDn0yhap7R1GD-0">
          <mxGeometry relative="1" as="geometry">
            <mxPoint x="120" y="710" as="sourcePoint" />
          </mxGeometry>
        </mxCell>
        <mxCell id="oInfv-fMDn0yhap7R1GD-30" value="" style="edgeStyle=orthogonalEdgeStyle;rounded=0;orthogonalLoop=1;jettySize=auto;html=1;fillColor=#ffe6cc;strokeColor=#d79b00;" edge="1" parent="WIyWlLk6GJQsqaUBKTNV-1" source="oInfv-fMDn0yhap7R1GD-2" target="oInfv-fMDn0yhap7R1GD-23">
          <mxGeometry relative="1" as="geometry">
            <Array as="points">
              <mxPoint x="410" y="600" />
              <mxPoint x="410" y="600" />
            </Array>
          </mxGeometry>
        </mxCell>
        <mxCell id="oInfv-fMDn0yhap7R1GD-33" style="edgeStyle=orthogonalEdgeStyle;rounded=0;orthogonalLoop=1;jettySize=auto;html=1;exitX=1;exitY=0.5;exitDx=0;exitDy=0;fillColor=#ffe6cc;strokeColor=#d79b00;" edge="1" parent="WIyWlLk6GJQsqaUBKTNV-1" source="oInfv-fMDn0yhap7R1GD-2" target="oInfv-fMDn0yhap7R1GD-18">
          <mxGeometry relative="1" as="geometry" />
        </mxCell>
        <mxCell id="oInfv-fMDn0yhap7R1GD-2" value="Splunk" style="rounded=1;whiteSpace=wrap;html=1;" vertex="1" parent="WIyWlLk6GJQsqaUBKTNV-1">
          <mxGeometry x="320" y="630" width="120" height="60" as="geometry" />
        </mxCell>
        <mxCell id="oInfv-fMDn0yhap7R1GD-3" value="DB" style="shape=cylinder3;whiteSpace=wrap;html=1;boundedLbl=1;backgroundOutline=1;size=15;" vertex="1" parent="WIyWlLk6GJQsqaUBKTNV-1">
          <mxGeometry x="630" y="530" width="60" height="80" as="geometry" />
        </mxCell>
        <mxCell id="oInfv-fMDn0yhap7R1GD-7" value="Publish Events to Kafka" style="text;html=1;strokeColor=none;fillColor=none;align=center;verticalAlign=middle;whiteSpace=wrap;rounded=0;" vertex="1" parent="WIyWlLk6GJQsqaUBKTNV-1">
          <mxGeometry x="260" y="375" width="130" height="10" as="geometry" />
        </mxCell>
        <mxCell id="oInfv-fMDn0yhap7R1GD-8" value="Splunk pushes the event log to Splunk DB" style="text;html=1;strokeColor=none;fillColor=none;align=center;verticalAlign=middle;whiteSpace=wrap;rounded=0;" vertex="1" parent="WIyWlLk6GJQsqaUBKTNV-1">
          <mxGeometry x="450" y="540" width="150" height="20" as="geometry" />
        </mxCell>
        <mxCell id="oInfv-fMDn0yhap7R1GD-10" value="API Call to fetch event log" style="text;html=1;strokeColor=none;fillColor=none;align=center;verticalAlign=middle;whiteSpace=wrap;rounded=0;" vertex="1" parent="WIyWlLk6GJQsqaUBKTNV-1">
          <mxGeometry x="40" y="528" width="100" height="10" as="geometry" />
        </mxCell>
        <mxCell id="oInfv-fMDn0yhap7R1GD-12" style="edgeStyle=orthogonalEdgeStyle;rounded=0;orthogonalLoop=1;jettySize=auto;html=1;entryX=0.5;entryY=0;entryDx=0;entryDy=0;fillColor=#d5e8d4;strokeColor=#82b366;" edge="1" parent="WIyWlLk6GJQsqaUBKTNV-1" source="oInfv-fMDn0yhap7R1GD-11" target="oInfv-fMDn0yhap7R1GD-0">
          <mxGeometry relative="1" as="geometry" />
        </mxCell>
        <mxCell id="oInfv-fMDn0yhap7R1GD-11" value="" style="shape=actor;whiteSpace=wrap;html=1;" vertex="1" parent="WIyWlLk6GJQsqaUBKTNV-1">
          <mxGeometry x="120" y="180" width="40" height="60" as="geometry" />
        </mxCell>
        <mxCell id="oInfv-fMDn0yhap7R1GD-13" value="User performs an action" style="text;html=1;strokeColor=none;fillColor=none;align=center;verticalAlign=middle;whiteSpace=wrap;rounded=0;" vertex="1" parent="WIyWlLk6GJQsqaUBKTNV-1">
          <mxGeometry x="140" y="250" width="140" height="20" as="geometry" />
        </mxCell>
        <mxCell id="oInfv-fMDn0yhap7R1GD-16" value="Core share pushes events to HEC" style="text;html=1;strokeColor=none;fillColor=none;align=center;verticalAlign=middle;whiteSpace=wrap;rounded=0;" vertex="1" parent="WIyWlLk6GJQsqaUBKTNV-1">
          <mxGeometry x="260" y="480" width="120" height="10" as="geometry" />
        </mxCell>
        <mxCell id="oInfv-fMDn0yhap7R1GD-17" value="Extract Events from Kafka" style="text;html=1;strokeColor=none;fillColor=none;align=center;verticalAlign=middle;whiteSpace=wrap;rounded=0;" vertex="1" parent="WIyWlLk6GJQsqaUBKTNV-1">
          <mxGeometry x="225" y="345" width="150" height="10" as="geometry" />
        </mxCell>
        <mxCell id="oInfv-fMDn0yhap7R1GD-19" style="edgeStyle=orthogonalEdgeStyle;rounded=0;orthogonalLoop=1;jettySize=auto;html=1;entryX=0.668;entryY=0.995;entryDx=0;entryDy=0;entryPerimeter=0;fillColor=#fff2cc;strokeColor=#d6b656;" edge="1" parent="WIyWlLk6GJQsqaUBKTNV-1" source="oInfv-fMDn0yhap7R1GD-18" target="oInfv-fMDn0yhap7R1GD-2">
          <mxGeometry relative="1" as="geometry" />
        </mxCell>
        <mxCell id="oInfv-fMDn0yhap7R1GD-18" value="" style="shape=actor;whiteSpace=wrap;html=1;" vertex="1" parent="WIyWlLk6GJQsqaUBKTNV-1">
          <mxGeometry x="600" y="720" width="40" height="60" as="geometry" />
        </mxCell>
        <mxCell id="oInfv-fMDn0yhap7R1GD-20" value="Splunk users can view data" style="text;html=1;strokeColor=none;fillColor=none;align=center;verticalAlign=middle;whiteSpace=wrap;rounded=0;" vertex="1" parent="WIyWlLk6GJQsqaUBKTNV-1">
          <mxGeometry x="440" y="720" width="100" height="20" as="geometry" />
        </mxCell>
        <mxCell id="oInfv-fMDn0yhap7R1GD-29" value="" style="edgeStyle=orthogonalEdgeStyle;rounded=0;orthogonalLoop=1;jettySize=auto;html=1;dashed=1;entryX=0;entryY=0.75;entryDx=0;entryDy=0;" edge="1" parent="WIyWlLk6GJQsqaUBKTNV-1" source="oInfv-fMDn0yhap7R1GD-21" target="oInfv-fMDn0yhap7R1GD-23">
          <mxGeometry relative="1" as="geometry" />
        </mxCell>
        <mxCell id="oInfv-fMDn0yhap7R1GD-21" value="Client for API" style="rounded=1;whiteSpace=wrap;html=1;" vertex="1" parent="WIyWlLk6GJQsqaUBKTNV-1">
          <mxGeometry x="160" y="630" width="120" height="60" as="geometry" />
        </mxCell>
        <mxCell id="oInfv-fMDn0yhap7R1GD-32" style="edgeStyle=orthogonalEdgeStyle;rounded=0;orthogonalLoop=1;jettySize=auto;html=1;exitX=0.75;exitY=1;exitDx=0;exitDy=0;entryX=0.75;entryY=0;entryDx=0;entryDy=0;fillColor=#ffe6cc;strokeColor=#d79b00;" edge="1" parent="WIyWlLk6GJQsqaUBKTNV-1" source="oInfv-fMDn0yhap7R1GD-23" target="oInfv-fMDn0yhap7R1GD-2">
          <mxGeometry relative="1" as="geometry" />
        </mxCell>
        <mxCell id="oInfv-fMDn0yhap7R1GD-23" value="HTTP Event Collector&lt;br&gt;(HEC)" style="rounded=0;whiteSpace=wrap;html=1;" vertex="1" parent="WIyWlLk6GJQsqaUBKTNV-1">
          <mxGeometry x="320" y="540" width="120" height="60" as="geometry" />
        </mxCell>
        <mxCell id="oInfv-fMDn0yhap7R1GD-28" value="Send event response to client" style="text;html=1;strokeColor=none;fillColor=none;align=center;verticalAlign=middle;whiteSpace=wrap;rounded=0;" vertex="1" parent="WIyWlLk6GJQsqaUBKTNV-1">
          <mxGeometry x="153" y="450" width="100" height="10" as="geometry" />
        </mxCell>
      </root>
    </mxGraphModel>
  </diagram>
</mxfile>
